<?xml version="1.0" encoding="UTF-8"?>
<svg id="Capa_1" data-name="Capa 1" xmlns="http://www.w3.org/2000/svg" xmlns:xlink="http://www.w3.org/1999/xlink" viewBox="0 0 35.32 35.51">
  <defs>
    <style>
      .cls-1 {
        fill: none;
      }

      .cls-2 {
        fill: #9fc8fb;
      }

      .cls-3 {
        fill: #faf9f1;
      }

      .cls-4 {
        clip-path: url(#clippath);
      }
    </style>
    <clipPath id="clippath">
      <rect class="cls-1" x="1.49" y="1.58" width="32.34" height="32.34"/>
    </clipPath>
  </defs>
  <g class="cls-4">
    <path class="cls-3" d="M17.66,1.58C8.73,1.58,1.49,8.82,1.49,17.76s7.24,16.17,16.17,16.17,16.17-7.24,16.17-16.17S26.59,1.58,17.66,1.58"/>
    <path class="cls-2" d="M18.39,27.46c.34-.34.52-.76.52-1.24s-.17-.9-.52-1.24c-.34-.34-.76-.52-1.24-.52s-.9.17-1.24.52c-.34.34-.52.76-.52,1.24s.17.9.52,1.24c.34.34.76.52,1.24.52s.9-.17,1.24-.52M18.29,21.8v-.13c0-.81.08-1.45.24-1.92.16-.47.41-.88.77-1.2.35-.33.82-.66,1.39-1.01.85-.53,1.52-1.18,1.99-1.95.48-.77.72-1.7.72-2.78,0-1.01-.23-1.91-.7-2.71-.47-.79-1.12-1.42-1.97-1.87-.85-.46-1.85-.68-3-.68-1.05,0-2,.21-2.87.62-.86.42-1.56,1.02-2.08,1.81-.52.79-.81,1.73-.85,2.83h2.44c.05-.77.25-1.39.58-1.86.34-.47.75-.81,1.24-1.03.49-.22,1-.33,1.53-.33.62,0,1.18.13,1.68.38.51.26.91.62,1.2,1.08.3.47.44,1.02.44,1.65,0,.78-.19,1.45-.58,2.01-.39.56-.88,1.01-1.46,1.35-.64.38-1.18.77-1.64,1.16-.46.39-.81.92-1.05,1.58-.25.67-.37,1.62-.37,2.87v.13h2.34Z"/>
  </g>
</svg>